Coordinates
version=1
nRows=12
nColumns=32
inDegrees=yes

Units are S.I. units (second, meters, Newtons, ...)
If the header above contains a line with 'inDegrees', this indicates whether rotational values are in degrees (yes) or radians (no).

endheader
time	pelvis_tilt	pelvis_list	pelvis_rotation	pelvis_tx	pelvis_ty	pelvis_tz	hip_flexion_r	hip_adduction_r	hip_rotation_r	knee_angle_r	knee_adduction_r	med_cond_adduction_r	lat_cond_adduction_r	patella_r_constrained_knee_angle	ankle_angle_r	subtalar_angle_r	mtp_angle_r	hip_flexion_l	hip_adduction_l	hip_rotation_l	knee_angle_l	knee_adduction_l	med_cond_adduction_l	lat_cond_adduction_l	patella_l_constrained_knee_angle	ankle_angle_l	subtalar_angle_l	mtp_angle_l	lumbar_extension	lumbar_bending	lumbar_rotation
      0.00500000	      0.63473761	      4.88098272	     -3.02890947	      0.22595048	      0.90651195	     -1.19646691	     -0.03464078	    -28.17515119	    -31.43299453	     -6.41044252	      4.23661648	      0.00000000	     -0.00000000	     -0.11188333	     -8.51843795	      9.82752758	     -0.00000000	     -0.89408231	    -14.68111947	    -37.49498020	     -4.88676822	      1.00562311	     -0.00000000	     -0.00000000	     -0.08529020	     -8.47349493	     16.98371517	     -0.00000000	    -15.04067188	     -3.76834790	     -2.25377977
      0.01000000	      0.63655343	      4.77029717	     -3.10426978	      0.22597834	      0.90652147	     -1.19627785	      0.05382734	    -28.03008146	    -31.41856439	     -6.49244906	      4.13328481	     -0.00000000	     -0.00000000	     -0.11331461	     -8.43042626	     10.06187279	     -0.00000000	     -0.95897926	    -14.82600142	    -37.54808910	     -4.86603490	      1.06168172	      0.00000000	      0.00000000	     -0.08492833	     -8.49993183	     16.94080106	     -0.00000000	    -15.05042539	     -3.55550396	     -1.99588272
      0.01500000	      0.64419573	      4.71806922	     -3.03955627	      0.22596017	      0.90658946	     -1.19638019	     -0.08308040	    -27.90351170	    -31.37510917	     -6.26418806	      4.13390148	     -0.00000000	     -0.00000000	     -0.10933071	     -8.59347975	      9.77082738	     -0.00000000	     -0.91180260	    -14.91130276	    -37.52355406	     -4.96249989	      1.06298595	      0.00000000	      0.00000000	     -0.08661196	     -8.40671129	     17.01521452	     -0.00000000	    -15.06539998	     -3.52530047	     -2.13059289
      0.02000000	      0.63354249	      4.81169685	     -3.08974632	      0.22599443	      0.90652400	     -1.19631320	      0.02393287	    -28.07185623	    -31.38381506	     -6.43849192	      4.16058638	     -0.00000000	     -0.00000000	     -0.11237288	     -8.46872023	      9.96421440	     -0.00000000	     -0.94021280	    -14.75889386	    -37.52854254	     -4.85987825	      1.02039761	      0.00000000	      0.00000000	     -0.08482088	     -8.45502032	     16.96203984	     -0.00000000	    -15.03548391	     -3.61988556	     -2.05902682
      0.02500000	      0.65552824	      4.69752194	     -3.12546468	      0.22602294	      0.90657064	     -1.19616739	      0.03023734	    -27.90253719	    -31.37560394	     -6.43797396	      4.07764581	      0.00000000	      0.00000000	     -0.11236384	     -8.43998250	     10.02715578	      0.00000000	     -1.01661902	    -14.92355119	    -37.55097206	     -4.85491913	      1.10462632	     -0.00000000	     -0.00000000	     -0.08473432	     -8.46594339	     16.95415620	      0.00000000	    -15.06242143	     -3.46410257	     -1.93315466
      0.03000000	      0.64495179	      4.61827885	     -3.11804528	      0.22604485	      0.90656916	     -1.19613195	      0.04519157	    -27.80800506	    -31.43002410	     -6.45486247	      4.05734992	     -0.00000000	     -0.00000000	     -0.11265860	     -8.43998553	     10.08663395	      0.00000000	     -1.01045164	    -15.04954177	    -37.55464077	     -4.90155142	      1.16417578	      0.00000000	      0.00000000	     -0.08554821	     -8.41231259	     16.93409027	      0.00000000	    -15.04034513	     -3.40076406	     -1.96764055
      0.03500000	      0.61743751	      4.86316799	     -3.08401873	      0.22604684	      0.90648111	     -1.19630689	      0.05021882	    -28.15303524	    -31.40065662	     -6.48533070	      4.18731449	      0.00000000	      0.00000000	     -0.11319037	     -8.43363887	      9.97006324	      0.00000000	     -0.93698791	    -14.69238307	    -37.51519977	     -4.81720137	      1.02614641	      0.00000000	      0.00000000	     -0.08407602	     -8.50534814	     16.94306029	     -0.00000000	    -14.99787146	     -3.72182838	     -2.12145046
      0.04000000	      0.60499207	      4.87406431	     -3.04980381	      0.22606433	      0.90647927	     -1.19636272	     -0.00234102	    -28.14366131	    -31.37868386	     -6.38673330	      4.20617866	     -0.00000000	     -0.00000000	     -0.11146952	     -8.51055468	      9.81780183	     -0.00000000	     -0.90371270	    -14.68949157	    -37.50962583	     -4.84247148	      1.03219506	      0.00000000	      0.00000000	     -0.08451707	     -8.48662686	     16.98424289	      0.00000000	    -14.98508660	     -3.70537322	     -2.11853075
      0.04500000	      0.57768189	      4.97115690	     -2.96687420	      0.22604565	      0.90643932	     -1.19654391	     -0.03824453	    -28.26910801	    -31.42606967	     -6.35166074	      4.26311045	      0.00000000	      0.00000000	     -0.11085739	     -8.54872905	      9.66792507	     -0.00000000	     -0.79784229	    -14.55676479	    -37.46314550	     -4.87060526	      0.94302330	     -0.00000000	     -0.00000000	     -0.08500810	     -8.50195213	     17.02377874	     -0.00000000	    -14.94259470	     -3.78878873	     -2.20646699
      0.05000000	      0.60504287	      4.71526640	     -3.09206807	      0.22609726	      0.90649645	     -1.19615748	      0.08422166	    -27.94598868	    -31.46114632	     -6.49678203	      4.09373610	     -0.00000000	     -0.00000000	     -0.11339024	     -8.40443658	     10.11094460	     -0.00000000	     -0.95618009	    -14.92245414	    -37.53461241	     -4.87167298	      1.13352335	     -0.00000000	     -0.00000000	     -0.08502673	     -8.46136748	     16.91972520	      0.00000000	    -14.97653764	     -3.46052338	     -1.91188397
      0.05500000	      0.56592594	      4.88327561	     -3.02885860	      0.22611621	      0.90640752	     -1.19637410	      0.04638545	    -28.17330383	    -31.43587828	     -6.44071394	      4.21482252	      0.00000000	      0.00000000	     -0.11241166	     -8.46504956	      9.90178902	     -0.00000000	     -0.86303431	    -14.67595363	    -37.47966908	     -4.83126205	      1.02752282	     -0.00000000	     -0.00000000	     -0.08432143	     -8.47898180	     16.95783800	      0.00000000	    -14.91326794	     -3.71300058	     -2.13859814
      0.06000000	      0.55798157	      4.90156110	     -3.02454871	      0.22612892	      0.90639381	     -1.19638231	      0.04188296	    -28.19418289	    -31.41024333	     -6.41767340	      4.23631281	      0.00000000	      0.00000000	     -0.11200953	     -8.49398086	      9.80724742	     -0.00000000	     -0.85104713	    -14.65450313	    -37.48918612	     -4.83357674	      1.02465958	      0.00000000	      0.00000000	     -0.08436183	     -8.47101298	     16.95957204	     -0.00000000	    -14.89956060	     -3.70131264	     -2.09180975
